<?xml version="1.0" encoding="utf-8"?>
<!-- Generator: Adobe Illustrator 16.0.0, SVG Export Plug-In . SVG Version: 6.00 Build 0)  -->
<!DOCTYPE svg PUBLIC "-//W3C//DTD SVG 1.1//EN" "http://www.w3.org/Graphics/SVG/1.1/DTD/svg11.dtd">
<svg version="1.1" id="圖層_1" xmlns="http://www.w3.org/2000/svg" xmlns:xlink="http://www.w3.org/1999/xlink" x="0px" y="0px"
width="447px" height="834.1px" viewBox="0 0 447 834.1" enable-background="new 0 0 447 834.1" xml:space="preserve">
<path fill="#E80006" stroke="#231815" stroke-miterlimit="10" d="M409,16.5c0,9.113-7.388,16.5-16.5,16.5h-343
	C40.387,33,33,25.613,33,16.5l0,0C33,7.387,40.387,0,49.5,0h343C401.612,0,409,7.387,409,16.5L409,16.5z"/>
<path fill="#E80006" stroke="#231815" stroke-miterlimit="10" d="M409,417c0,9.113-7.388,16.5-16.5,16.5h-343
	c-9.113,0-16.5-7.387-16.5-16.5l0,0c0-9.113,7.387-16.5,16.5-16.5h343C401.612,400.5,409,407.887,409,417L409,417z"/>
<path fill="#E80006" stroke="#231815" stroke-miterlimit="10" d="M16.5,801.5C7.387,801.5,0,794.112,0,785V442
	c0-9.113,7.387-16.5,16.5-16.5l0,0c9.113,0,16.5,7.387,16.5,16.5v343C33,794.112,25.613,801.5,16.5,801.5L16.5,801.5z"/>
<path fill="#E80006" stroke="#231815" stroke-miterlimit="10" d="M430.5,405c-9.113,0-16.5-7.388-16.5-16.5v-343
	c0-9.113,7.387-16.5,16.5-16.5l0,0c9.113,0,16.5,7.387,16.5,16.5v343C447,397.612,439.613,405,430.5,405L430.5,405z"/>
<path fill="#E80006" stroke="#231815" stroke-miterlimit="10" d="M430.5,801.5c-9.113,0-16.5-7.388-16.5-16.5V442
	c0-9.113,7.387-16.5,16.5-16.5l0,0c9.113,0,16.5,7.387,16.5,16.5v343C447,794.112,439.613,801.5,430.5,801.5L430.5,801.5z"/>
<path fill="#E80006" stroke="#231815" stroke-miterlimit="10" d="M16.5,405C7.387,405,0,397.612,0,388.5v-343
	C0,36.387,7.387,29,16.5,29l0,0C25.613,29,33,36.387,33,45.5v343C33,397.612,25.613,405,16.5,405L16.5,405z"/>
<path fill="#E80006" stroke="#231815" stroke-miterlimit="10" d="M409,817.6c0,9.113-7.388,16.5-16.5,16.5h-343
	c-9.113,0-16.5-7.387-16.5-16.5l0,0c0-9.113,7.387-16.5,16.5-16.5h343C401.612,801.1,409,808.486,409,817.6L409,817.6z"/>
<circle fill="#E80006" stroke="#231815" stroke-miterlimit="10" cx="221" cy="217" r="36.5"/>
<circle fill="#E80006" stroke="#231815" stroke-miterlimit="10" cx="221" cy="613.5" r="36.5"/>
</svg>
